<svg preserveAspectRatio="none" overflow="visible" style="display: block;" width="368.013" height="628.466" viewBox="0 0 368.013 628.466" fill="none" xmlns="http://www.w3.org/2000/svg">
<g id="Group 2147233272">
<path id="Vector" d="M106.069 0.539809L107.206 0.449843C203.172 -6.80816 223.099 75.1088 243.296 148.798C249.33 169.784 254.808 192.964 267.584 210.974C289.069 241.264 326.458 245.494 353.641 266.484C374.538 282.614 371.13 306.714 353.169 324.444C315.1 362.024 253.126 368.214 202.306 369.834C202.531 380.844 201.079 442.964 203.021 448.424C205.494 449.094 207.295 449.644 209.716 450.474C213.567 454.874 211.814 489.824 211.774 497.314C227.081 502.584 323.153 533.454 328.868 539.174C332.041 542.354 331.117 548.554 331.047 552.704C332.301 553.494 333.52 554.344 334.702 555.234C354.517 570.044 349.167 599.944 323.915 602.264C316.268 603.014 308.664 600.474 302.987 595.304C289.723 583.274 294.266 568.154 305.235 556.684C270.857 549.284 236.433 542.094 201.965 535.124C201.39 549.324 201.881 566.704 201.893 581.144L207.035 585.984C210.585 591.064 212.596 595.384 213.067 601.704C213.551 608.414 211.2 615.024 206.585 619.924C201.454 625.454 194.225 628.554 186.685 628.464C162.394 628.164 152.061 598.504 173.505 580.984L173.502 535.464C166.262 535.864 146.619 540.354 138.595 542.034C115.579 547.054 92.4918 551.734 69.3409 556.094L70.7029 557.734C80.8799 570.104 83.8628 585.884 69.6508 596.794C63.5858 601.474 55.8408 603.394 48.2908 602.114C23.3758 597.974 19.6518 567.124 43.2788 553.284C43.1148 547.354 41.7159 539.794 48.3239 537.164C60.8889 532.144 73.8778 528.014 86.6808 523.594L162.829 497.394C163.114 484.524 162.207 471.394 162.682 458.454C163.149 445.724 167.493 452.064 172.372 447.594C173.634 424.534 172.638 393.164 172.586 369.494C-9.94118 366.334 -15.2212 271.414 12.2518 119.163C23.0078 59.5528 33.2508 7.63381 106.069 0.539809Z" fill="black"/>
<path id="Vector_2" d="M100.1 10.4602C209.63 -0.28676 216.817 95.2832 241.676 174.553C253.462 212.143 269.819 234.703 306.635 251.833C329.219 262.343 376.108 276.123 353.383 310.943C335.092 337.573 297.114 349.313 266.368 355.603L264.562 355.933C204.502 366.593 102.288 366.323 49.7033 331.103C-11.0507 287.933 10.5563 192.063 19.3493 129.714C27.1563 74.3522 36.5543 19.6152 100.1 10.4602Z" fill="white"/>
<path id="Vector_3" d="M242.832 236.044L243.898 236.254L243.584 237.544C231.065 249.184 219.063 258.704 202.91 264.854C155.429 282.934 104.436 287.094 57.0927 267.264L55.1348 265.684C55.9718 263.854 58.4107 261.104 60.1657 261.744C107.878 279.094 159.151 275.194 205.389 254.924C216.459 250.074 230.422 242.064 242.832 236.044Z" fill="black"/>
<path id="Vector_4" d="M170.678 456.263L203.792 456.193C203.942 480.113 203.909 504.043 203.691 527.973L170.679 527.873L170.678 456.263Z" fill="white"/>
<path id="Vector_5" d="M211.772 505.504C225.404 510.784 318.218 540.904 322.535 544.694C323.17 547.784 323.154 547.614 322.415 550.684C322.159 550.724 321.903 550.764 321.646 550.794C321.217 550.844 320.786 550.884 320.36 550.944C312.04 552.234 226.618 532.244 211.754 529.094L211.772 505.504Z" fill="white"/>
<path id="Vector_6" d="M160.971 506.204C161.37 506.274 162.133 506.884 162.535 507.164C163.288 512.674 162.848 523.344 162.765 529.284L88.5259 544.534C78.6639 546.564 62.2319 550.554 52.8109 551.824C50.6369 549.224 50.8039 547.204 51.8029 544.224C57.0639 541.414 79.5649 534.234 86.3719 531.894L160.971 506.204Z" fill="white"/>
<path id="Vector_7" d="M180.387 369.914L194.48 369.854C194.926 395.884 194.551 422.954 194.554 449.064L180.39 449.094L180.387 369.914Z" fill="white"/>
<path id="Vector_8" d="M49.7284 559.643C59.3494 557.673 68.7614 563.833 70.7934 573.443C72.8264 583.053 66.7164 592.493 57.1194 594.583C47.4434 596.693 37.9024 590.523 35.8534 580.833C33.8034 571.143 40.0294 561.643 49.7284 559.643Z" fill="white"/>
<path id="Vector_9" d="M317.037 559.774C326.645 557.514 336.263 563.484 338.499 573.104C340.735 582.714 334.74 592.314 325.121 594.534C315.536 596.734 305.975 590.764 303.747 581.184C301.519 571.604 307.463 562.034 317.037 559.774Z" fill="white"/>
<path id="Vector_10" d="M185.82 584.893C195.426 584.023 203.985 590.943 205.14 600.523C206.295 610.093 199.627 618.853 190.09 620.293C183.666 621.253 177.225 618.653 173.277 613.493C169.328 608.343 168.496 601.443 171.105 595.493C173.714 589.543 179.351 585.483 185.82 584.893Z" fill="white"/>
<path id="Vector_11" d="M181.411 535.333L193.64 535.473L193.665 577.033C188.936 576.133 186.104 576.533 181.385 576.853L181.411 535.333Z" fill="white"/>
</g>
</svg>
