<svg preserveAspectRatio="none" overflow="visible" style="display: block;" width="208.225" height="168.118" viewBox="0 0 208.225 168.118" fill="none" xmlns="http://www.w3.org/2000/svg">
<g id="Group 2147233266">
<path id="Vector" d="M2.43043 0C8.84158 0.271559 22.9784 3.71131 30.5781 4.57321C33.3882 12.169 36.7059 24.6214 39.146 32.7091L156.696 38.5456L191.255 40.3403C194.513 40.5135 206.537 40.482 208.217 42.009C208.678 44.1894 189.192 102.331 186.941 109.277C176.476 109.981 165.134 110.107 154.535 110.603C124.172 112.016 93.6665 112.725 63.3148 114.283L64.1413 120.021C64.8536 123.744 65.4715 127.487 65.9989 131.242L150.206 131.289C155.672 131.297 183.32 129.821 184.67 133.32L184.104 134.304C182.407 135.213 170.498 134.855 167.873 134.859L138.222 134.87C113.317 134.874 87.7708 135.158 62.8976 134.851C61.0951 127.33 60.796 118.553 58.899 111.512C50.0556 78.76 38.7367 46.4012 29.6808 13.7393C29.3659 14.6445 28.327 18.8674 27.2879 18.7297C20.7312 17.8717 5.74032 16.3919 0.143845 13.7904C-0.505536 11.5393 1.18283 2.00718 2.43043 0Z" fill="black"/>
<path id="Vector_2" d="M40.4602 36.4243C46.8674 36.6643 53.2668 37.0028 59.6622 37.4397C60.839 43.8587 62.6769 50.1754 63.8458 56.5787L46.5251 56.5984C45.0256 51.8835 41.208 40.6157 40.4602 36.4243Z" fill="white"/>
<path id="Vector_3" d="M63.6298 37.6092C69.8874 37.865 76.1412 38.1995 82.387 38.6246C82.8121 44.3667 83.8353 50.7621 84.3942 56.638C78.841 56.6459 73.2918 56.6065 67.7386 56.5278C66.8964 52.911 63.8305 40.7144 63.6298 37.6092Z" fill="white"/>
<path id="Vector_4" d="M86.1767 38.6796C91.722 39.0298 97.2713 39.2975 102.824 39.4903C103.116 44.9176 103.804 51.1044 104.285 56.575L88.1957 56.5907C87.5463 50.5967 86.7119 44.7168 86.1767 38.6796Z" fill="white"/>
<path id="Vector_5" d="M106.564 39.7895C112.577 40.006 118.587 40.2854 124.593 40.6239C124.632 45.937 124.62 51.2541 124.557 56.5672L108.102 56.5947C107.559 50.9982 107.048 45.3939 106.564 39.7895Z" fill="white"/>
<path id="Vector_6" d="M128.115 40.8561C133.487 40.9505 139.359 41.3441 144.763 41.5999C144.397 46.3778 143.96 51.1478 143.456 55.9139C143.44 55.9414 143.429 55.9729 143.405 55.9965C142.283 57.1418 130.551 56.6223 128.154 56.6065L128.115 40.8561Z" fill="white"/>
<path id="Vector_7" d="M148.603 41.7966C154.164 42.139 159.729 42.4224 165.294 42.6467C164.732 47.2789 164.11 51.9033 163.433 56.5198C158.415 56.7402 152.39 56.5906 147.293 56.5946C147.572 51.7931 148.139 46.5941 148.603 41.7966Z" fill="white"/>
<path id="Vector_8" d="M47.4775 60.231L64.81 60.2468C65.6955 64.6783 66.9983 69.7357 68.0333 74.1908C62.8776 74.3915 56.9703 74.2459 51.7595 74.2301L47.4775 60.231Z" fill="white"/>
<path id="Vector_9" d="M169.168 42.9181C174.729 43.0322 180.892 43.4809 186.488 43.7642L183.556 55.8821C182.651 57.1218 169.652 56.5984 167.306 56.5787C167.767 52.3282 168.459 47.0662 169.168 42.9181Z" fill="white"/>
<path id="Vector_10" d="M52.8652 77.9374C58.1704 77.8745 63.5504 77.9256 68.8636 77.9335C70.0324 81.9872 71.1895 87.7844 72.1734 92.0152C67.1909 92.0664 62.1218 92.0152 57.1314 92.0152C55.565 87.4538 54.223 82.5854 52.8652 77.9374Z" fill="white"/>
<path id="Vector_11" d="M146.966 60.2429C152.197 60.1563 157.648 60.239 162.898 60.239C162.343 64.9381 161.69 69.6215 160.938 74.2931C155.873 74.2656 150.808 74.2695 145.742 74.301C145.959 69.7475 146.522 64.8122 146.966 60.2429Z" fill="white"/>
<path id="Vector_12" d="M88.585 60.2195L104.705 60.2589C105.115 64.9187 105.473 69.5863 105.776 74.2579L90.5174 74.2933C89.7184 70.4758 89.1045 64.2496 88.585 60.2195Z" fill="white"/>
<path id="Vector_13" d="M108.413 60.2349L124.589 60.2153C124.655 64.8948 124.628 69.5742 124.506 74.2497L109.68 74.293L108.413 60.2349Z" fill="white"/>
<path id="Vector_14" d="M68.6431 60.2468L84.9091 60.2153L86.4794 74.2458L71.9687 74.2537C70.7093 69.5467 69.6978 65.0089 68.6431 60.2468Z" fill="white"/>
<path id="Vector_15" d="M166.739 60.2191L182.576 60.2034L179.015 74.2142C174.292 74.289 169.573 74.3205 164.85 74.3126C165.559 69.6253 166.188 64.9262 166.739 60.2191Z" fill="white"/>
<path id="Vector_16" d="M90.8602 77.9452L106.075 77.9138C106.619 82.6129 107.051 87.3239 107.378 92.0427L92.5093 92.0742C91.8992 87.3711 91.3522 82.6641 90.8602 77.9452Z" fill="white"/>
<path id="Vector_17" d="M58.1552 95.7068L73.0673 95.691C73.76 98.4656 76.2041 107.585 76.0466 110.052C71.5679 110.182 67.097 110.398 62.6261 110.698C61.0794 105.798 59.6272 100.646 58.1552 95.7068Z" fill="white"/>
<path id="Vector_18" d="M145.337 77.9375L160.505 77.9218L158.513 91.6847C157.364 92.3263 146.25 92.0862 144.144 92.0822C144.306 87.7963 144.947 82.2982 145.337 77.9375Z" fill="white"/>
<path id="Vector_19" d="M128.127 60.2431C133.062 60.1604 138.166 60.2352 143.117 60.2431C142.74 64.9147 142.287 69.5784 141.756 74.2382C137.222 74.2815 132.688 74.2894 128.158 74.2697L128.127 60.2431Z" fill="white"/>
<path id="Vector_20" d="M109.963 77.9533L124.584 77.9061V92.0586L111.239 92.0626C110.68 87.7806 110.188 82.2471 109.963 77.9533Z" fill="white"/>
<path id="Vector_21" d="M92.9457 95.7187L107.712 95.7029C108.169 100.056 108.543 104.416 108.83 108.781L94.4058 109.293C94.1618 104.904 93.4849 100.123 92.9457 95.7187Z" fill="white"/>
<path id="Vector_22" d="M72.7286 77.9022L87.0268 77.9376C87.4794 82.5305 88.2036 87.454 88.7979 92.0548L76.0739 92.0272C74.846 87.7177 73.748 82.3377 72.7286 77.9022Z" fill="white"/>
<path id="Vector_23" d="M164.409 77.9455L178.129 77.918L174.803 91.2913L174.327 91.9013C171.576 92.2516 165.318 92.0548 162.276 92.0312L164.409 77.9455Z" fill="white"/>
<path id="Vector_24" d="M128.17 77.9414L141.563 77.8942C141.208 82.4988 140.779 87.0918 140.272 91.6807C139.217 92.3458 129.992 92.0467 128.134 92.031L128.17 77.9414Z" fill="white"/>
<path id="Vector_25" d="M186.484 60.2114L199.051 60.2193L194.442 74.242C190.818 74.3718 186.536 74.2695 182.86 74.2774C183.977 69.5665 185.186 64.8752 186.484 60.2114Z" fill="white"/>
<path id="Vector_26" d="M190.204 44.0357C194.777 44.1341 199.523 44.4018 204.108 44.5986L200.35 56.2599C198.858 56.862 189.488 56.5983 187.209 56.5787C188.252 52.4069 189.251 48.2272 190.204 44.0357Z" fill="white"/>
<path id="Vector_27" d="M5.05133 4.03403C12.3874 5.34066 19.7352 6.59216 27.0909 7.78466L25.4852 15.2073L3.52824 11.1496C3.99264 8.70168 4.40195 6.44264 5.05133 4.03403Z" fill="white"/>
<path id="Vector_28" d="M76.8572 95.7029H89.3096C89.6717 98.8042 90.7382 106.754 90.6202 109.517C87.1726 109.706 83.721 109.828 80.2694 109.879C79.0336 105.444 77.9277 100.237 76.8572 95.7029Z" fill="white"/>
<path id="Vector_29" d="M111.467 95.7305L124.588 95.7029C124.624 99.8708 124.612 104.035 124.549 108.199C120.57 108.301 116.591 108.47 112.616 108.706C112.16 104.389 111.778 100.064 111.467 95.7305Z" fill="white"/>
<path id="Vector_30" d="M143.862 95.7307C148.458 95.6323 153.331 95.711 157.951 95.7071C157.337 99.3003 156.826 103.145 156.283 106.77C152.382 107.223 146.805 107.199 142.642 107.451C143.149 103.842 143.413 99.4932 143.862 95.7307Z" fill="white"/>
<path id="Vector_31" d="M182.033 77.9493L193.202 77.9099C191.817 82.4634 190.203 87.1547 188.712 91.6886C186.972 92.2868 180.652 92.0349 178.507 92.0113C179.542 87.2728 180.793 82.6366 182.033 77.9493Z" fill="white"/>
<path id="Vector_32" d="M128.139 95.7188L139.997 95.6991L138.926 107.431C135.443 107.813 131.641 107.856 128.123 107.97L128.139 95.7188Z" fill="white"/>
<path id="Vector_33" d="M161.741 95.7071L173.646 95.7111C172.863 99.2059 171.899 102.72 170.986 106.192C168.774 106.499 162.686 106.609 160.191 106.719C160.541 103.189 161.206 99.2374 161.741 95.7071Z" fill="white"/>
<path id="Vector_34" d="M177.55 95.7267L187.436 95.7148L184.166 105.668C181.368 105.94 177.837 105.936 174.976 106.01C175.633 102.83 176.731 98.9342 177.55 95.7267Z" fill="white"/>
<path id="Vector_35" d="M79.7303 146.351C85.7164 145.784 91.0334 150.168 91.6159 156.155C92.1983 162.141 87.8298 167.466 81.8437 168.064C75.8379 168.662 70.4894 164.274 69.9069 158.268C69.3205 152.262 73.7245 146.922 79.7303 146.351Z" fill="black"/>
<path id="Vector_36" d="M78.6086 150.31C82.4026 149.133 86.4366 151.231 87.6449 155.013C88.8531 158.795 86.7829 162.845 83.0126 164.085C79.195 165.336 75.0941 163.238 73.8701 159.417C72.6501 155.592 74.7753 151.502 78.6086 150.31Z" fill="white"/>
<path id="Vector_37" d="M163.335 146.721C167.129 145.658 171.198 146.729 173.981 149.515C176.767 152.305 177.826 156.379 176.755 160.169C175.685 163.963 172.646 166.879 168.817 167.8C163.047 169.185 157.227 165.698 155.731 159.952C154.239 154.206 157.616 148.323 163.335 146.721Z" fill="black"/>
<path id="Vector_38" d="M165.783 149.971C169.75 149.704 173.189 152.687 173.481 156.65C173.776 160.617 170.808 164.073 166.845 164.388C162.85 164.707 159.36 161.712 159.064 157.717C158.769 153.718 161.784 150.243 165.783 149.971Z" fill="white"/>
</g>
</svg>
